<svg width="1127" height="395" viewBox="0 0 1127 395" fill="none" xmlns="http://www.w3.org/2000/svg">
<path d="M0 0H74.707C105.664 0 127.734 4.58984 140.918 13.7695C154.102 22.9492 160.693 36.1328 160.693 53.3203C160.693 62.6953 158.984 70.6543 155.566 77.1973C152.246 83.7402 147.998 88.916 142.822 92.7246C137.744 96.5332 132.52 99.1211 127.148 100.488V101.953C133.008 103.418 138.818 105.859 144.58 109.277C150.439 112.598 155.273 117.627 159.082 124.365C162.988 131.006 164.941 140.039 164.941 151.465C164.941 164.453 161.621 175.635 154.98 185.01C148.438 194.385 139.062 201.611 126.855 206.689C114.648 211.67 100.146 214.16 83.3496 214.16H0V0ZM57.8613 82.1777H75.293C84.8633 82.1777 91.6016 80.2246 95.5078 76.3184C99.4141 72.3145 101.367 67.4805 101.367 61.8164C101.367 55.957 99.1211 51.5137 94.6289 48.4863C90.2344 45.3613 83.3984 43.7988 74.1211 43.7988H57.8613V82.1777ZM57.8613 124.512V169.482H78.2227C88.2812 169.482 95.3125 167.334 99.3164 163.037C103.32 158.643 105.322 153.174 105.322 146.631C105.322 142.822 104.443 139.258 102.686 135.938C101.025 132.52 98.1445 129.785 94.043 127.734C89.9414 125.586 84.2773 124.512 77.0508 124.512H57.8613Z" fill="#046CB4"/>
<path d="M383.163 0V128.906C383.163 146.875 379.745 162.5 372.909 175.781C366.073 188.965 355.82 199.17 342.148 206.396C328.476 213.525 311.337 217.09 290.732 217.09C261.239 217.09 238.73 209.521 223.202 194.385C207.675 179.248 199.911 157.861 199.911 130.225V0H258.066V125.684C258.066 140.82 260.898 151.807 266.562 158.643C272.226 165.479 280.575 168.896 291.611 168.896C299.521 168.896 305.966 167.432 310.946 164.502C315.927 161.475 319.54 156.738 321.786 150.293C324.13 143.848 325.302 135.547 325.302 125.391V0H383.163Z" fill="#046CB4"/>
<path d="M521.551 214.16H463.69V47.3145H411.395V0H573.7V47.3145H521.551V214.16Z" fill="#046CB4"/>
<path d="M697.732 214.16H639.871V47.3145H587.576V0H749.88V47.3145H697.732V214.16Z" fill="#046CB4"/>
<path d="M906.579 214.16H779.43V0H906.579V46.4355H837.292V80.127H901.452V126.562H837.292V166.992H906.579V214.16Z" fill="#046CB4"/>
<path d="M1013.18 0C1032.61 0 1048.78 2.39258 1061.67 7.17773C1074.56 11.8652 1084.22 18.8965 1090.67 28.2715C1097.21 37.6465 1100.48 49.3164 1100.48 63.2812C1100.48 71.9727 1099.02 79.8828 1096.09 87.0117C1093.16 94.1406 1088.96 100.537 1083.49 106.201C1078.12 111.768 1071.68 116.65 1064.16 120.85L1126.56 214.16H1060.93L1015.52 136.23H1000.87V214.16H943.014V0H1013.18ZM1012.3 43.7988H1000.87V92.7246H1011.71C1020.6 92.7246 1027.88 90.7715 1033.54 86.8652C1039.2 82.959 1042.04 75.9766 1042.04 65.918C1042.04 58.9844 1039.69 53.5645 1035.01 49.6582C1030.32 45.752 1022.75 43.7988 1012.3 43.7988Z" fill="#046CB4"/>
<path d="M393.228 394.52L371.328 317.396H370.669C370.864 319.397 371.06 322.107 371.255 325.525C371.499 328.943 371.719 332.63 371.914 336.585C372.109 340.54 372.207 344.349 372.207 348.011V394.52H346.572V287.439H385.098L407.437 363.465H408.022L429.922 287.439H468.521V394.52H441.934V347.571C441.934 344.202 441.982 340.589 442.08 336.731C442.227 332.825 442.373 329.163 442.52 325.745C442.715 322.278 442.886 319.544 443.032 317.542H442.373L420.767 394.52H393.228Z" fill="#40A8C4"/>
<path d="M556.225 394.52L550.951 374.451H516.161L510.741 394.52H478.954L513.891 287H552.489L587.865 394.52H556.225ZM544.945 350.721L540.331 333.143C539.843 331.238 539.135 328.528 538.207 325.013C537.279 321.448 536.352 317.786 535.424 314.026C534.545 310.218 533.861 307.093 533.373 304.651C532.934 307.093 532.299 310.12 531.469 313.733C530.688 317.298 529.858 320.838 528.979 324.354C528.149 327.869 527.416 330.799 526.781 333.143L522.167 350.721H544.945Z" fill="#40A8C4"/>
<path d="M633.529 287.439C643.245 287.439 651.327 288.636 657.772 291.028C664.217 293.372 669.051 296.888 672.274 301.575C675.545 306.263 677.181 312.098 677.181 319.08C677.181 323.426 676.449 327.381 674.984 330.945C673.519 334.51 671.419 337.708 668.685 340.54C665.999 343.323 662.777 345.765 659.017 347.864L690.218 394.52H657.406L634.701 355.555H627.376V394.52H598.446V287.439H633.529ZM633.089 309.339H627.376V333.802H632.796C637.24 333.802 640.877 332.825 643.709 330.872C646.541 328.919 647.957 325.428 647.957 320.398C647.957 316.932 646.785 314.222 644.442 312.269C642.098 310.315 638.314 309.339 633.089 309.339Z" fill="#40A8C4"/>
<path d="M746.135 394.52H717.205V311.097H691.057V287.439H772.209V311.097H746.135V394.52Z" fill="#40A8C4"/>
<rect y="287" width="290" height="42" fill="#40A8C4"/>
<rect y="353" width="290" height="42" fill="#046CB4"/>
<rect x="837" y="287" width="290" height="42" fill="#40A8C4"/>
<rect x="837" y="353" width="290" height="42" fill="#046CB4"/>
</svg>
