<svg width="33" height="33" viewBox="0 0 33 33" fill="none" xmlns="http://www.w3.org/2000/svg">
<path d="M30.25 8.59375V15.6062C30.25 17.3525 29.6725 18.8237 28.6413 19.8412C27.6238 20.8725 26.1525 21.45 24.4062 21.45V23.9387C24.4062 24.8737 23.3612 25.4375 22.5912 24.915L21.2575 24.035C21.3813 23.6087 21.4362 23.1412 21.4362 22.6462V17.05C21.4362 14.245 19.5663 12.375 16.7613 12.375H7.42499C7.23249 12.375 7.05375 12.3888 6.875 12.4025V8.59375C6.875 5.0875 9.2125 2.75 12.7188 2.75H24.4062C27.9125 2.75 30.25 5.0875 30.25 8.59375Z" fill="white" stroke="#F3C06B" stroke-width="1.5" stroke-miterlimit="10" stroke-linecap="round" stroke-linejoin="round"/>
<path d="M21.4362 17.05V22.6462C21.4362 23.1412 21.3813 23.6087 21.2575 24.035C20.7488 26.0562 19.0713 27.3212 16.7613 27.3212H13.0213L8.86875 30.085C8.25 30.5113 7.42499 30.0575 7.42499 29.315V27.3212C6.02249 27.3212 4.85375 26.8538 4.0425 26.0425C3.2175 25.2175 2.75 24.0487 2.75 22.6462V17.05C2.75 14.4375 4.3725 12.6363 6.875 12.4025C7.05375 12.3888 7.23249 12.375 7.42499 12.375H16.7613C19.5663 12.375 21.4362 14.245 21.4362 17.05Z" fill="white" stroke="#F3C06B" stroke-width="1.5" stroke-miterlimit="10" stroke-linecap="round" stroke-linejoin="round"/>
</svg>
